<svg xmlns="http://www.w3.org/2000/svg" viewBox="0 0 360 720" role="img" aria-label="Halfling equipment silhouette"><defs><linearGradient id="c" x1="0" y1="0" x2="0" y2="1"><stop offset="0" stop-color="#5d6544"/><stop offset="1" stop-color="#24291e"/></linearGradient><linearGradient id="s" x1="0" y1="0" x2="0" y2="1"><stop offset="0" stop-color="#b49a69"/><stop offset="1" stop-color="#65583f"/></linearGradient><filter id="d"><feDropShadow dx="0" dy="10" stdDeviation="10" flood-color="#000" flood-opacity=".55"/></filter></defs><g filter="url(#d)" stroke="#bd9954" stroke-width="2.2" stroke-linejoin="round"><ellipse cx="180" cy="128" rx="43" ry="45" fill="url(#s)"/><path d="M139 121 Q180 78 221 121 L213 99 Q180 72 147 99Z" fill="#3a3425"/><path d="M128 171 Q180 149 232 171 L247 241 229 392 213 509 203 609 173 609 163 505 153 609 123 609 113 509 97 392 113 241Z" fill="url(#c)"/><path d="M111 204 77 278 62 365 84 370 109 301 137 234Z" fill="url(#s)"/><path d="M249 204 283 278 298 365 276 370 251 301 223 234Z" fill="url(#s)"/><path d="M105 373 Q180 395 255 373 L249 399 Q180 420 111 399Z" fill="#8c7040"/><path d="M116 604 Q138 590 160 607 L154 633 Q122 644 96 626Z" fill="#766244"/><path d="M200 607 Q222 590 244 604 L264 626 Q238 644 206 633Z" fill="#766244"/><path d="M104 613 Q126 592 153 611" fill="none" opacity=".7"/><path d="M207 611 Q234 592 256 613" fill="none" opacity=".7"/></g></svg>
